# xmcd
#
# Track frame offsets:
#	150
#	15004
#	28105
#	41892
#	56110
#	70928
#	86528
#	101813
#	115655
#	130626
#
# Disc length: 1929 seconds
#
# Revision: 1
# Processed by: cddbd v1.5.2PL0 Copyright (c) Steve Scherf et al.
# Submitted via: EasyCDDAExtractor 16.0.6.1
#
DISCID=7c07870a
DTITLE=Συλλογικός δίσκος - Ιστορία ρεμπέτικου και λαϊκού 01-5
DYEAR=2007
DGENRE=Ποικίλη
TTITLE0=Μαρίκα η Πολίτισσα - Στο καφέ αμάν [Κώστα Σκαρβέλη]
TTITLE1=Εσκενάζυ Ρόζα - Νέα μερακλού [Κώστα Τζόβενου]
TTITLE2=Εσκενάζυ Ρόζα - Το Μαρικάκι [Γ. Δραγάτση-Μαρίκας Πολίτισσας]
TTITLE3=Εσκενάζυ Ρόζα - Στον λεβέντη μας Τζιμ Λόντο [Παν. Τούντα]
TTITLE4=Βαμβακάρης Μάρκος-Αμπατζή Ρίτα - Σαν είσαι μάγκας και νταής [Μάρκου Βα
TTITLE4=μβακάρη]
TTITLE5=Αμπατζή Ρίτα - Ο βαρκάρης [Παν. Τούντα]
TTITLE6=Αμπατζή Ρίτα-Κασιμάτης Ζαχαρίας - Αεροπλάνο θα πάρω [Παν. Τούντα]
TTITLE7=Εσκενάζυ Ρόζα - Κορόϊδο άδικα γυρνάς [Μ. Βαμβακάρη-Γ. Καμβύση]
TTITLE8=Αμπατζή Ρίτα - Με ζουρνάδες, με νταούλια [Παν. Τούντα]
TTITLE9=Εσκενάζυ Ρόζα - Του Πειραιά το αλάνι [Ν. Μάθεση-Δ. Μπαρούση Λορέντζου]
EXTD=
EXTT0=
EXTT1=
EXTT2=
EXTT3=
EXTT4=
EXTT5=
EXTT6=
EXTT7=
EXTT8=
EXTT9=
PLAYORDER=
